<?xml version="1.0" encoding="UTF-8" standalone="no"?>
<svg
   xmlns:dc="http://purl.org/dc/elements/1.1/"
   xmlns:cc="http://creativecommons.org/ns#"
   xmlns:rdf="http://www.w3.org/1999/02/22-rdf-syntax-ns#"
   xmlns:svg="http://www.w3.org/2000/svg"
   xmlns="http://www.w3.org/2000/svg"
   xmlns:sodipodi="http://sodipodi.sourceforge.net/DTD/sodipodi-0.dtd"
   xmlns:inkscape="http://www.inkscape.org/namespaces/inkscape"
   sodipodi:docname="fitnfocused.svg"
   inkscape:version="1.0 (4035a4fb49, 2020-05-01)"
   id="svg8"
   version="1.1"
   viewBox="0 0 319.88126 128.58748"
   height="128.58748mm"
   width="319.88126mm">
  <defs
     id="defs2" />
  <sodipodi:namedview
     inkscape:window-maximized="1"
     inkscape:window-y="-9"
     inkscape:window-x="-9"
     inkscape:window-height="1001"
     inkscape:window-width="1920"
     fit-margin-bottom="0"
     fit-margin-right="0"
     fit-margin-left="0"
     fit-margin-top="0"
     showgrid="false"
     inkscape:document-rotation="0"
     inkscape:current-layer="layer1"
     inkscape:document-units="mm"
     inkscape:cy="229.68319"
     inkscape:cx="1060.4782"
     inkscape:zoom="0.49497475"
     inkscape:pageshadow="2"
     inkscape:pageopacity="0.0"
     borderopacity="1.0"
     bordercolor="#666666"
     pagecolor="#ffffff"
     id="base" />
  <metadata
     id="metadata5">
    <rdf:RDF>
      <cc:Work
         rdf:about="">
        <dc:format>image/svg+xml</dc:format>
        <dc:type
           rdf:resource="http://purl.org/dc/dcmitype/StillImage" />
        <dc:title></dc:title>
      </cc:Work>
    </rdf:RDF>
  </metadata>
  <g
     transform="translate(53.633788,-87.377874)"
     id="layer1"
     inkscape:groupmode="layer"
     inkscape:label="Layer 1">
    <path
       id="path24"
       d="M -53.633788,151.67161 V 87.377874 H 106.30684 266.24748 v 64.293736 64.29375 H 106.30684 -53.633788 Z m 63.1413625,54.53343 c 3.2110675,-1.82839 8.4483125,-4.78509 26.5523945,-14.99017 2.40109,-1.35347 7.69937,-4.34832 11.77396,-6.65522 l 7.40833,-4.19436 0.0673,-29.32455 c 0.0538,-23.4325 5.3e-4,-29.29658 -0.26458,-29.18537 -0.18254,0.0765 -2.41548,1.26363 -4.9621,2.63795 l -4.6302,2.49877 -0.0688,11.88728 -0.0688,11.88729 -6.14891,3.54332 c -3.38189,1.94884 -7.00953,4.02769 -8.06142,4.61967 l -1.91252,1.07634 -0.006,5.88698 c -0.003,3.23784 0.0592,5.88698 0.13862,5.88698 0.12512,0 13.77999,-7.89317 15.39995,-8.90192 l 0.59531,-0.3707 v 5.90451 5.90451 l -8.40052,4.79856 C 3.7363155,198.06994 5.8179965,196.92424 5.2430705,196.5488 c -0.295077,-0.19269 -3.036814,-1.75593 -6.09275103,-3.47385 -6.06082697,-3.40716 -6.88414697,-3.87073 -20.90208447,-11.76904 -5.238751,-2.95174 -11.430001,-6.43505 -13.758334,-7.74068 -2.328334,-1.30563 -4.924322,-2.77722 -5.768863,-3.2702 -0.844541,-0.49298 -1.648213,-0.89633 -1.785938,-0.89633 -0.404226,0 -0.326179,11.25117 0.08032,11.57903 0.285345,0.23015 7.406913,4.2183 23.084897,12.9278 2.182813,1.21261 8.850313,4.93618 14.8166675,8.27461 5.96635497,3.33843 10.865123,6.07942 10.886152,6.09109 0.02103,0.0117 1.687904,-0.91812 3.704167,-2.06619 z m 9.6824825,-28.48461 3.6353,-2.10403 0.003,-18.32239 c 0.002,-13.05297 -0.0802,-18.32239 -0.28579,-18.32239 -0.15867,0 -2.4195,1.13938 -5.02406,2.53196 l -4.735558,2.53197 -0.06917,10.46927 -0.06917,10.46927 -8.9958335,-10.48385 -8.995833,-10.48383 -3.836459,-2.22105 c -2.1100525,-1.22158 -4.1043495,-2.35859 -4.4317715,-2.52671 L -14.2106,138.953 v 17.71697 17.71697 l 1.389062,0.79063 c 0.763985,0.43485 2.9653025,1.62084 4.8918165,2.63555 l 3.502752,1.84492 0.06912,-10.61518 0.06912,-10.61517 9.390878,11.03004 c 8.7139675,10.23498 9.4291515,11.00614 9.9218745,10.69838 0.292054,-0.18241 2.166884,-1.27847 4.166304,-2.43568 z m 90.366613,0.66492 c 4.79945,-0.77884 8.16269,-4.05162 9.2019,-8.95437 0.52574,-2.4803 0.52536,-17.16519 -5.3e-4,-19.64613 -1.0096,-4.76329 -4.05067,-7.82942 -8.75343,-8.82558 -5.86101,-1.24151 -11.669541,0.8743 -13.945561,5.07979 -1.57197,2.90458 -1.65846,3.61222 -1.65846,13.57005 0,9.77908 0.0866,10.54653 1.50407,13.32493 2.19541,4.30337 7.550111,6.44152 13.652011,5.45131 z m -4.61695,-6.35119 c -1.0629,-0.32722 -2.10911,-1.56226 -2.47525,-2.92201 -0.18465,-0.68574 -0.2567,-4.24802 -0.2054,-10.15551 0.0757,-8.71237 0.10222,-9.13031 0.62454,-9.82944 1.6688,-2.23371 4.83099,-2.64364 6.83306,-0.88581 1.4365,1.26127 1.52347,1.99107 1.43339,12.02918 -0.0757,8.43891 -0.11348,9.05145 -0.60988,9.89422 -0.29104,0.49411 -0.83383,1.12544 -1.20619,1.40296 -0.79565,0.59298 -3.16594,0.84457 -4.39427,0.46641 z m 35.43135,5.83575 c 2.87253,-1.07889 5.44167,-4.2152 5.93297,-7.24276 l 0.1421,-0.87566 -2.64304,-0.83785 c -3.02555,-0.95912 -3.23271,-0.9867 -3.23271,-0.43044 0,0.64004 -0.93831,2.30674 -1.69767,3.01554 -0.52276,0.48796 -1.06008,0.67067 -2.20856,0.75102 -1.88931,0.13218 -3.08058,-0.56302 -3.96513,-2.31395 -0.58167,-1.1514 -0.59527,-1.37872 -0.59383,-9.91974 0.001,-5.52891 0.10819,-9.1257 0.29185,-9.78725 0.82082,-2.95651 4.39719,-3.99911 6.72052,-1.9592 0.51298,0.45041 1.0536,1.26079 1.22685,1.83903 0.17035,0.56859 0.4548,1.0338 0.63212,1.0338 0.17731,0 1.43839,-0.40647 2.80239,-0.90327 2.34846,-0.85536 2.47705,-0.94177 2.42447,-1.62926 -0.0932,-1.21879 -1.38169,-3.5097 -2.73519,-4.8632 -2.45655,-2.45655 -5.97369,-3.54469 -9.62332,-2.9773 -4.59186,0.71388 -7.39359,3.05876 -8.91656,7.46261 -0.55554,1.6064 -0.60209,2.26417 -0.70599,9.976 -0.15769,11.70449 0.24959,14.00935 3.00055,16.98071 1.4858,1.60485 3.50172,2.73196 5.73699,3.20759 1.84618,0.39284 5.69074,0.11976 7.41119,-0.52642 z m 26.73184,0.39987 c 2.40489,-0.5096 4.17702,-1.52242 5.87753,-3.35918 1.54859,-1.67266 2.33195,-3.39692 2.7702,-6.09753 0.15712,-0.96821 0.27075,-7.10897 0.27192,-14.69406 l 0.002,-13.03073 h -3.96875 -3.96875 l -5.3e-4,13.69219 c -5.3e-4,15.26294 0.042,14.88728 -1.82466,16.13431 -0.70855,0.47334 -1.26911,0.60037 -2.64583,0.59959 -2.18148,-0.001 -3.28706,-0.60498 -4.00534,-2.18729 -0.47948,-1.05625 -0.5083,-1.87955 -0.51379,-14.6789 l -0.006,-13.5599 h -3.96875 -3.96875 l 0.005,13.03073 c 0.003,7.3194 0.12209,13.84249 0.27184,14.88281 0.54623,3.79476 2.59787,6.71397 5.82811,8.29263 2.70946,1.32416 6.44922,1.69468 9.844,0.97533 z m 29.62859,-0.40363 c 4.14233,-1.54984 6.31159,-4.93333 6.30326,-9.83145 -0.009,-5.23557 -2.07624,-8.14163 -8.48203,-11.92323 -4.62111,-2.72804 -5.63575,-3.76804 -5.63575,-5.77663 0,-2.81328 2.01501,-4.019 5.23153,-3.1304 1.18376,0.32703 2.94087,1.98492 3.20064,3.0199 0.0902,0.35944 0.2553,0.65353 0.36686,0.65353 0.36486,0 5.29605,-2.35942 5.29605,-2.53399 0,-0.65266 -1.90052,-3.50613 -3.0751,-4.61699 -4.50625,-4.26182 -12.25571,-4.16899 -16.24377,0.19458 -1.81655,1.98758 -2.47833,3.81815 -2.46705,6.8241 0.0189,5.04438 1.7001,7.2631 8.90303,11.74969 4.5689,2.8459 5.57062,4.01437 5.57804,6.50656 0.007,2.42408 -1.38024,3.48636 -4.24345,3.24892 -1.87113,-0.15517 -3.37253,-1.19696 -4.30098,-2.98433 -0.37795,-0.72761 -0.71966,-1.37524 -0.75936,-1.43919 -0.14753,-0.23768 -5.68603,1.70974 -5.81447,2.04445 -0.0734,0.19137 0.29937,1.22386 0.82847,2.29441 1.52805,3.0918 4.23863,5.25591 7.69304,6.1421 1.86724,0.47902 5.7633,0.25304 7.62104,-0.44203 z M 77.070389,170.58932 v -7.54062 h 5.42395 5.42396 v -3.175 -3.175 h -5.42396 -5.42395 v -4.36563 -4.36562 h 6.35 6.35 v -3.43958 -3.43959 h -10.18646 -10.18646 v 18.52083 18.52084 h 3.83646 3.83646 z m 151.812601,4.16719 -0.0741,-3.37344 -6.28385,-0.0709 -6.28386,-0.0709 v -4.63748 -4.63748 l 4.49826,0.0782 4.49826,0.0782 v -2.97657 -2.97656 h -4.48497 -4.48498 l -0.0791,-4.10142 -0.0791,-4.10142 6.15156,2.6e-4 6.15157,2.7e-4 v -3.43959 -3.43958 h -10.05417 -10.05417 v 18.52083 18.52083 h 10.32666 10.32666 l -0.074,-3.37343 z m 21.43167,2.97378 c 4.34385,-1.02413 7.27104,-3.80069 8.42688,-7.99323 0.4345,-1.57597 0.49448,-2.80471 0.49448,-10.12795 0,-7.32323 -0.06,-8.55197 -0.49448,-10.12794 -0.87567,-3.17635 -2.83843,-5.61183 -5.68513,-7.05445 -2.16453,-1.09691 -4.18471,-1.32893 -11.61362,-1.33384 l -6.94532,-0.005 v 18.52083 18.52084 l 7.07761,-0.004 c 5.31479,-0.003 7.49154,-0.1015 8.73958,-0.39575 z m -7.87969,-18.15808 v -11.94316 l 3.02313,0.13342 c 3.51253,0.155 4.4146,0.52866 5.28545,2.18935 0.53097,1.01259 0.55497,1.43577 0.55497,9.78959 0,8.55934 -0.0117,8.75328 -0.59791,9.85027 -0.88336,1.65327 -1.6157,1.92368 -5.20978,1.92368 h -3.05586 z m -275.367728,-7.50582 0.06876,-12.30523 4.365625,2.45923 c 2.401094,1.35258 5.169297,2.90716 6.151563,3.45463 l 1.785938,0.99541 v -5.77193 -5.77193 l -6.217709,-3.52966 -6.217708,-3.52966 v -5.93169 -5.9317 l 0.859896,0.44406 c 0.472942,0.24423 5.622396,3.12017 11.443229,6.39098 14.1201335,7.9343 20.61732647,11.58318 23.8509265,13.39489 l 2.684259,1.50393 5.2532405,-2.96062 c 2.889282,-1.62835 7.039185,-3.97008 9.221995,-5.20387 2.18281,-1.23378 5.81422,-3.28289 8.069792,-4.55358 2.25557,-1.27068 6.89901,-3.88976 10.31875,-5.82017 3.41974,-1.93041 8.56919,-4.834 11.44323,-6.45242 l 5.22552,-2.94259 v -5.75705 c 0,-3.16638 -0.0521,-5.757046 -0.11584,-5.757046 -0.0637,0 -1.80614,0.96156 -3.87208,2.136786 -2.06593,1.17524 -4.78201,2.7072 -6.03572,3.40435 -1.25372,0.69714 -7.39917,4.15607 -13.65657,7.68649 -6.257392,3.53042 -12.389112,6.98381 -13.626042,7.6742 -1.23693,0.69038 -4.490579,2.52137 -7.230334,4.06885 l -4.9813735,2.81361 -1.765501,-0.97621 c -1.867739,-1.03274 -20.5536365,-11.517 -36.9928395,-20.75591 -5.405035,-3.03765 -9.959175,-5.522996 -10.120312,-5.522996 -0.212535,0 -0.292389,8.227186 -0.290834,29.964056 l 0.0021,29.96406 4.958795,2.70091 c 2.727337,1.4855 5.046915,2.70589 5.154616,2.71198 0.107702,0.006 0.226765,-5.52629 0.264584,-12.29416 z m 110.065167,-23.74425 0.0703,-7.47448 5.35781,-0.0716 5.35781,-0.0716 v -3.16404 -3.16405 l -5.35781,-0.0716 -5.35781,-0.0716 -0.0727,-4.29948 -0.0727,-4.29948 h 6.35655 6.35656 v -3.43958 -3.439586 h -10.18646 -10.18646 v 18.520826 18.52084 h 3.83234 3.83233 z M 103.52872,117.27578 V 98.754954 h -3.836461 -3.83646 v 18.520826 18.52084 h 3.83646 3.836461 z m 20.6375,3.43959 v -15.08125 h 3.84436 3.84437 l -0.074,-3.37344 -0.074,-3.373436 -11.44323,-0.069 -11.44323,-0.069 v 3.435126 3.43513 l 3.77031,0.0734 3.77031,0.0734 0.0683,15.0151 0.0683,15.01511 h 3.83428 3.83427 z m 31.01936,4.57463 0.0692,-10.5066 2.75222,5.0165 c 1.51372,2.75908 4.11775,7.48706 5.78674,10.50661 l 3.03451,5.49011 h 2.61379 2.61379 V 117.27578 98.754954 h -3.3073 -3.30729 l -0.008,10.120306 c -0.008,9.12921 -0.048,10.06849 -0.41225,9.59115 -0.22212,-0.29104 -2.79431,-4.84518 -5.716,-10.12031 l -5.31216,-9.591146 h -2.87455 -2.87455 v 18.520826 18.52084 h 3.43655 3.43655 z"
       style="fill:#000000;stroke-width:0.264583" />
  </g>
</svg>
