<?xml version="1.0" encoding="UTF-8" standalone="no"?>
<svg
   xmlns:dc="http://purl.org/dc/elements/1.1/"
   xmlns:cc="http://creativecommons.org/ns#"
   xmlns:rdf="http://www.w3.org/1999/02/22-rdf-syntax-ns#"
   xmlns:svg="http://www.w3.org/2000/svg"
   xmlns="http://www.w3.org/2000/svg"
   xmlns:sodipodi="http://sodipodi.sourceforge.net/DTD/sodipodi-0.dtd"
   xmlns:inkscape="http://www.inkscape.org/namespaces/inkscape"
   inkscape:export-ydpi="118.46133"
   inkscape:export-xdpi="118.46133"
   inkscape:export-filename="C:\Users\edwar\OneDrive\Documents\Projects\fitnfocused\src\images\icon.png"
   width="512"
   height="512"
   viewBox="0 0 135.46667 135.46666"
   version="1.1"
   id="svg8"
   inkscape:version="1.0 (4035a4fb49, 2020-05-01)"
   sodipodi:docname="icon.svg">
  <defs
     id="defs2" />
  <sodipodi:namedview
     id="base"
     pagecolor="#ffffff"
     bordercolor="#666666"
     borderopacity="1.0"
     inkscape:pageopacity="0.0"
     inkscape:pageshadow="2"
     inkscape:zoom="1.4"
     inkscape:cx="71.393991"
     inkscape:cy="233.13295"
     inkscape:document-units="mm"
     inkscape:current-layer="layer1"
     inkscape:document-rotation="0"
     showgrid="false"
     inkscape:pagecheckerboard="true"
     fit-margin-top="0"
     fit-margin-left="0"
     fit-margin-right="0"
     fit-margin-bottom="0"
     units="px"
     inkscape:window-width="1920"
     inkscape:window-height="1001"
     inkscape:window-x="-9"
     inkscape:window-y="-9"
     inkscape:window-maximized="1" />
  <metadata
     id="metadata5">
    <rdf:RDF>
      <cc:Work
         rdf:about="">
        <dc:format>image/svg+xml</dc:format>
        <dc:type
           rdf:resource="http://purl.org/dc/dcmitype/StillImage" />
        <dc:title></dc:title>
      </cc:Work>
    </rdf:RDF>
  </metadata>
  <g
     inkscape:label="Layer 1"
     inkscape:groupmode="layer"
     id="layer1"
     transform="translate(-50.330222,-35.151693)">
    <path
       sodipodi:nodetypes="csscccsccccsccsscccssssssssssscccccsscccccsccccsscccssccccsscccccccssscssssscssssssscsssccsccc"
       id="path24"
       d="m 122.67006,168.046 c 3.94592,-2.24681 10.3817,-5.88015 32.62889,-18.42066 2.95058,-1.66321 9.46137,-5.34344 14.46844,-8.17828 l 9.10372,-5.15424 0.0827,-36.03546 c 0.0661,-28.795021 6.6e-4,-36.001094 -0.32513,-35.864433 -0.22431,0.09401 -2.96826,1.552811 -6.09767,3.241644 l -5.68983,3.070612 -0.0845,14.60768 -0.0845,14.607692 -7.55609,4.354215 c -4.15583,2.39483 -8.61366,4.94942 -9.90627,5.67687 l -2.3502,1.32266 -0.007,7.23422 c -0.004,3.97882 0.0727,7.23421 0.17034,7.23421 0.15375,0 16.93354,-9.69952 18.92422,-10.93912 l 0.73155,-0.45554 v 7.25576 7.25576 l -10.32298,5.89671 c -40.77724,23.29289 -38.21917,21.885 -38.92567,21.42364 -0.3626,-0.23679 -3.73179,-2.15778 -7.48707,-4.26884 -7.44788,-4.18689 -8.45962,-4.75655 -25.685564,-14.4624 -6.437637,-3.62724 -14.045752,-7.9077 -16.906923,-9.51213 -2.861173,-1.60442 -6.051252,-3.41278 -7.089065,-4.01858 -1.037814,-0.6058 -2.025406,-1.10146 -2.19465,-1.10146 -0.496733,0 -0.400825,13.826 0.0987,14.22889 0.350646,0.28282 9.101982,5.18366 28.367867,15.88634 2.682349,1.49011 10.8757,6.06582 18.207485,10.16825 7.33177,4.10243 13.35162,7.47069 13.37746,7.48503 0.0258,0.0144 2.07418,-1.12823 4.55186,-2.53904 z m 11.89831,-35.00331 4.46723,-2.58554 0.004,-22.51546 c 0.002,-16.040141 -0.0985,-22.515466 -0.35119,-22.515466 -0.19498,0 -2.9732,1.400127 -6.17382,3.111398 l -5.81929,3.111411 -0.085,12.865157 -0.085,12.86516 -11.0549,-12.88307 -11.05454,-12.883056 -4.714457,-2.729337 C 97.108458,87.382749 94.657772,85.985535 94.255419,85.778941 L 93.52387,85.403343 v 21.771497 21.77149 l 1.706949,0.97157 c 0.938822,0.53436 3.64391,1.99177 6.011311,3.23869 l 4.30438,2.26713 0.0849,-13.04446 0.0849,-13.04445 11.53999,13.55426 c 10.70815,12.57725 11.58701,13.52489 12.19249,13.1467 0.35888,-0.22415 2.66277,-1.57104 5.11976,-2.99308 z m -64.051143,-31.52496 0.0845,-15.12128 5.364697,3.022024 c 2.950583,1.662117 6.352288,3.572462 7.559346,4.245221 l 2.194649,1.223209 V 87.79407 80.701236 l -7.64063,-4.337422 -7.640628,-4.337421 v -7.289155 -7.289167 l 1.056683,0.545683 c 0.581175,0.300122 6.909079,3.834219 14.062008,7.853553 17.351538,9.750062 25.335628,14.233987 29.309238,16.460306 l 3.29855,1.848103 6.45545,-3.638156 c 3.55049,-2.000998 8.65009,-4.878632 11.33244,-6.394774 2.68234,-1.51613 7.1448,-4.034178 9.91656,-5.595665 2.77175,-1.561475 8.47784,-4.77993 12.68019,-7.152114 4.20234,-2.372183 10.53026,-5.940259 14.06202,-7.929054 l 6.42138,-3.616 v -7.074549 c 0,-3.891005 -0.064,-7.074544 -0.14235,-7.074544 -0.0783,0 -2.21948,1.181613 -4.75821,2.625789 -2.53871,1.444193 -5.87637,3.326741 -7.417,4.183434 -1.54064,0.85668 -9.09247,5.107185 -16.78187,9.44554 -7.68939,4.338356 -15.22436,8.582053 -16.74436,9.430438 -1.52,0.848373 -5.51824,3.098385 -8.88499,5.000005 l -6.12135,3.457504 -2.16954,-1.199616 C 113.71884,67.354872 90.756639,54.471293 70.55533,43.118062 63.913355,39.385247 58.317002,36.33113 58.118989,36.33113 c -0.261174,0 -0.359303,10.109975 -0.357392,36.821319 l 0.0026,36.821331 6.093613,3.319 c 3.351487,1.82546 6.2019,3.32514 6.334248,3.33263 0.13235,0.007 0.27866,-6.79099 0.325134,-15.10768 z"
       style="fill:#ffffff;stroke-width:0.325133" />
  </g>
</svg>
